<?xml version="1.0" encoding="UTF-8" standalone="no"?>
<!-- Created with Inkscape (http://www.inkscape.org/) -->

<svg
   xmlns:dc="http://purl.org/dc/elements/1.1/"
   xmlns:cc="http://creativecommons.org/ns#"
   xmlns:rdf="http://www.w3.org/1999/02/22-rdf-syntax-ns#"
   xmlns:svg="http://www.w3.org/2000/svg"
   xmlns="http://www.w3.org/2000/svg"
   xmlns:sodipodi="http://sodipodi.sourceforge.net/DTD/sodipodi-0.dtd"
   xmlns:inkscape="http://www.inkscape.org/namespaces/inkscape"
   width="96.651978mm"
   height="95.00042mm"
   viewBox="0 0 342.46764 336.61566"
   id="svg8366"
   version="1.1"
   inkscape:version="0.91 r13725"
   sodipodi:docname="superbohater.svg">
  <defs
     id="defs8368">
    <clipPath
       clipPathUnits="userSpaceOnUse"
       id="clipPath160">
      <path
         d="m 506.7882,207.7551 -110.2349,0 c -2.8341,-5.2874 -10.1829,-4.9393 -17.5861,-4.5909 l 0,0 c -3.1669,0.1505 -6.3448,0.2996 -9.182,0.007 l 0,0 c -37.9239,-3.9143 -58.373,-30.9636 -63.3549,-69.1151 l 0,0 c 6.243,6.559 25.6941,24.4596 27.017,25.173 l 0,0 c 11.3471,6.1368 22.4521,12.5136 34.4169,18.0267 l 0,0 c -0.8969,-8.2607 3.2581,-11.4596 5.7571,-16.3196 l 0,0 c -13.5981,-30.8778 -39.4081,-49.5434 -69.1109,-64.3224 32.9148,11.88 55.5128,34.0773 71.0368,63.36 l 0,0 c 10.8252,-5.616 21.5441,1.8006 29.7592,4.7993 l 0,0 c -0.8322,-7.425 4.6418,-13.0294 -0.9632,-17.2754 l 0,0 c -1.0309,-1.099 -3.2119,-1.0386 -5.396,-0.9768 l 0,0 c -0.777,0.0218 -1.556,0.0428 -2.2819,0.013 l 0,0 c -5.245,-11.3567 -27.7271,-25.7358 -13.441,-41.2727 l 0,0 c 10.572,7.3479 16.0809,24.8726 26.8761,28.7949 l 0,0 c -3.7902,-10.9267 -9.1072,-20.3312 -16.3191,-27.8422 l 0,0 c -23.612,-5.1851 -28.1829,-29.4151 -43.1991,-43.2 l 0,0 c -3.7758,2.0679 -6.954,-0.1828 -10.5568,-0.9527 l 0,0 C 336.1493,48.6567 321.3853,46.1373 320.8272,29.4182 l 0,0 c 1.6931,-0.8659 2.9761,-2.1435 3.8432,-3.8355 10.1409,0.557 12.2539,7.8845 17.2709,12.477 l 0,0 c 8.1241,7.429 18.5689,15.7918 26.8849,22.0765 l 0,0 c 7.4861,5.6656 16.8769,9.2086 23.9981,15.3652 l 0,0 c 5.3,4.5807 8.8731,10.9783 14.3969,15.3564 l 0,0 c 6.4321,5.0879 13.8572,8.4841 20.1612,13.4399 l 0,0 c 15.0619,11.844 19.7339,29.4655 30.7167,44.1561 l 0,0 c 1.2212,-24.9681 0.2081,-44.6786 28.8012,-42.2399 l 0,0 c -0.4561,-13.299 -7.8611,-19.6537 -9.599,-31.6758 l 0,0 -4.799,-9.5986 c 0.917,-1.7878 -2.878,-3.2123 0,-3.8413 l 0,0 c 16.5061,17.9615 34.0409,34.3455 43.194,58.5607 l 0,0 c 12.517,33.088 -2.8412,59.4624 -8.9081,88.0962"
         id="path162"
         inkscape:connector-curvature="0"
         style="clip-rule:evenodd" />
    </clipPath>
    <linearGradient
       x1="243.88"
       y1="-97.389999"
       x2="243.88"
       y2="-4.3600001"
       gradientUnits="userSpaceOnUse"
       spreadMethod="pad"
       id="linearGradient164">
      <stop
         style="stop-opacity:1;stop-color:#606064"
         offset="0"
         id="stop166" />
      <stop
         style="stop-opacity:1;stop-color:#606064"
         offset="0.12"
         id="stop168" />
      <stop
         style="stop-opacity:1;stop-color:#c7c8cc"
         offset="0.43"
         id="stop170" />
      <stop
         style="stop-opacity:1;stop-color:#e0e1e4"
         offset="0.8"
         id="stop172" />
      <stop
         style="stop-opacity:1;stop-color:#e0e1e4"
         offset="1"
         id="stop174" />
    </linearGradient>
  </defs>
  <sodipodi:namedview
     id="base"
     pagecolor="#ffffff"
     bordercolor="#666666"
     borderopacity="1.0"
     inkscape:pageopacity="0.0"
     inkscape:pageshadow="2"
     inkscape:zoom="2.8"
     inkscape:cx="123.65688"
     inkscape:cy="164.11591"
     inkscape:document-units="px"
     inkscape:current-layer="g8293"
     showgrid="false"
     fit-margin-top="0"
     fit-margin-left="0"
     fit-margin-right="0"
     fit-margin-bottom="0"
     inkscape:window-width="1920"
     inkscape:window-height="1029"
     inkscape:window-x="0"
     inkscape:window-y="25"
     inkscape:window-maximized="1" />
  <metadata
     id="metadata8371">
    <rdf:RDF>
      <cc:Work
         rdf:about="">
        <dc:format>image/svg+xml</dc:format>
        <dc:type
           rdf:resource="http://purl.org/dc/dcmitype/StillImage" />
        <dc:title></dc:title>
      </cc:Work>
    </rdf:RDF>
  </metadata>
  <g
     inkscape:label="Layer 1"
     inkscape:groupmode="layer"
     id="layer1"
     transform="translate(294.09096,-352.6258)">
    <g
       transform="matrix(1.25,0,0,-1.25,-674.72758,721.21834)"
       id="g8293">
      <g
         id="g156">
        <g
           clip-path="url(#clipPath160)"
           id="g158">
          <path
             inkscape:connector-curvature="0"
             id="path176"
             style="fill:url(#linearGradient164);fill-rule:evenodd;stroke:none"
             d="m 506.7882,207.7551 -110.2349,0 c -2.8341,-5.2874 -10.1829,-4.9393 -17.5861,-4.5909 l 0,0 c -3.1669,0.1505 -6.3448,0.2996 -9.182,0.007 l 0,0 c -37.9239,-3.9143 -58.373,-30.9636 -63.3549,-69.1151 l 0,0 c 6.243,6.559 25.6941,24.4596 27.017,25.173 l 0,0 c 11.3471,6.1368 22.4521,12.5136 34.4169,18.0267 l 0,0 c -0.8969,-8.2607 3.2581,-11.4596 5.7571,-16.3196 l 0,0 c -13.5981,-30.8778 -39.4081,-49.5434 -69.1109,-64.3224 32.9148,11.88 55.5128,34.0773 71.0368,63.36 l 0,0 c 10.8252,-5.616 21.5441,1.8006 29.7592,4.7993 l 0,0 c -0.8322,-7.425 4.6418,-13.0294 -0.9632,-17.2754 l 0,0 c -1.0309,-1.099 -3.2119,-1.0386 -5.396,-0.9768 l 0,0 c -0.777,0.0218 -1.556,0.0428 -2.2819,0.013 l 0,0 c -5.245,-11.3567 -27.7271,-25.7358 -13.441,-41.2727 l 0,0 c 10.572,7.3479 16.0809,24.8726 26.8761,28.7949 l 0,0 c -3.7902,-10.9267 -9.1072,-20.3312 -16.3191,-27.8422 l 0,0 c -23.612,-5.1851 -28.1829,-29.4151 -43.1991,-43.2 l 0,0 c -3.7758,2.0679 -6.954,-0.1828 -10.5568,-0.9527 l 0,0 C 336.1493,48.6567 321.3853,46.1373 320.8272,29.4182 l 0,0 c 1.6931,-0.8659 2.9761,-2.1435 3.8432,-3.8355 10.1409,0.557 12.2539,7.8845 17.2709,12.477 l 0,0 c 8.1241,7.429 18.5689,15.7918 26.8849,22.0765 l 0,0 c 7.4861,5.6656 16.8769,9.2086 23.9981,15.3652 l 0,0 c 5.3,4.5807 8.8731,10.9783 14.3969,15.3564 l 0,0 c 6.4321,5.0879 13.8572,8.4841 20.1612,13.4399 l 0,0 c 15.0619,11.844 19.7339,29.4655 30.7167,44.1561 l 0,0 c 1.2212,-24.9681 0.2081,-44.6786 28.8012,-42.2399 l 0,0 c -0.4561,-13.299 -7.8611,-19.6537 -9.599,-31.6758 l 0,0 -4.799,-9.5986 c 0.917,-1.7878 -2.878,-3.2123 0,-3.8413 l 0,0 c 16.5061,17.9615 34.0409,34.3455 43.194,58.5607 l 0,0 c 12.517,33.088 -2.8412,59.4624 -8.9081,88.0962" />
        </g>
      </g>
      <path
         inkscape:connector-curvature="0"
         id="path178"
         style="fill:#111619;fill-opacity:1;fill-rule:nonzero;stroke:none"
         d="m 468.6605,260.7676 c -0.4711,7.1951 2.4227,11.0111 6.7198,13.4396 4.7642,-1.4842 14.1301,-8.0419 16.319,-5.76 -6.3399,14.2395 -29.044,10.0375 -30.717,-5.758 2.9041,-0.2946 3.4262,-2.9705 7.6782,-1.9216" />
      <path
         inkscape:connector-curvature="0"
         id="path180"
         style="fill:#111619;fill-opacity:1;fill-rule:nonzero;stroke:none"
         d="m 460.0199,108.1392 c -0.1122,1.1659 -0.2891,2.27 -1.921,1.9154 -7.8962,-11.6261 -22.4051,-21.7511 -27.8431,-32.6382 9.3861,10.7856 21.265,19.0568 29.7641,30.7228" />
      <path
         inkscape:connector-curvature="0"
         id="path182"
         style="fill:#d72626;fill-opacity:1;fill-rule:nonzero;stroke:none"
         d="m 372.6686,190.6909 c 3.3701,3.6637 9.2888,4.79 11.514,9.5986 -42.4791,2.1615 -68.5941,-20.3572 -73.921,-58.5549 l 23.0491,18.0771 c 25.4409,17.4906 56.406,29.4576 77.7518,51.0406 -14.9188,-0.7657 -23.55,-16.1311 -38.3939,-20.1614" />
      <path
         inkscape:connector-curvature="0"
         id="path184"
         style="fill:#d72626;fill-opacity:1;fill-rule:nonzero;stroke:none"
         d="m 404.3432,175.3345 c 7.4801,38.3788 -31.913,5.7016 -32.6378,-3.8418 -1.3731,-18.036 36.3118,-11.0722 36.4748,2.8794 -1.4298,0.163 -3.5379,-0.339 -3.837,0.9624" />
      <path
         inkscape:connector-curvature="0"
         id="path186"
         style="fill:#17a8e1;fill-opacity:1;fill-rule:nonzero;stroke:none"
         d="m 419.6993,156.1329 c 3.0201,-0.4567 2.5339,2.5843 4.8039,2.878 -2.4931,3.5881 -3.4359,8.7278 -6.7249,11.5254 -4.6729,-3.3257 -0.4921,-12.0209 1.921,-14.4034" />
      <path
         inkscape:connector-curvature="0"
         id="path188"
         style="fill:#d72626;fill-opacity:1;fill-rule:nonzero;stroke:none"
         d="m 451.3788,240.6076 c -0.2639,3.7868 4.1051,2.9378 3.8469,6.7235 -6.4979,-0.7169 -10.861,5.7563 -17.2868,1.9182 5.8989,-1.463 11.9599,-2.7547 13.4399,-8.6417" />
      <path
         inkscape:connector-curvature="0"
         id="path190"
         style="fill:#17a8e1;fill-opacity:1;fill-rule:nonzero;stroke:none"
         d="m 425.4613,153.2543 c -0.248,-4.6114 7.2221,-6.588 9.6041,-2.8797 -4.1559,0.4164 -5.1591,5.4748 -9.6041,2.8797" />
      <path
         inkscape:connector-curvature="0"
         id="path192"
         style="fill:#17a8e1;fill-opacity:1;fill-rule:nonzero;stroke:none"
         d="m 474.4176,155.1745 c 4.4601,7.6986 9.9791,14.3469 14.4032,22.0816 -7.0852,-4.4397 -13.7041,-14.453 -14.4032,-22.0816" />
      <path
         inkscape:connector-curvature="0"
         id="path194"
         style="fill:#17a8e1;fill-opacity:1;fill-rule:nonzero;stroke:none"
         d="m 460.0199,165.731 c -5.4791,-4.1145 -13.983,-5.2098 -16.319,-12.4764 5.3569,0.557 6.7308,-2.8681 11.5248,-2.8789 1.368,4.9053 8.028,8.9592 4.7942,15.3553" />
      <path
         inkscape:connector-curvature="0"
         id="path196"
         style="fill:#d72626;fill-opacity:1;fill-rule:nonzero;stroke:none"
         d="m 500.3405,215.6508 c -9.4471,-44.314 -4.6321,-102.8792 -20.1612,-141.1112 30.5051,16.916 50.4621,81.4612 25.9181,122.8742 -1.2311,-8.2964 2.9749,-16.215 1.9159,-21.1207 -5.5698,10.1087 -1.4599,29.8951 -7.6728,39.3577" />
      <path
         inkscape:connector-curvature="0"
         id="path198"
         style="fill:#d72626;fill-opacity:1;fill-rule:nonzero;stroke:none"
         d="m 549.2968,272.2876 c -2.9291,0.043 -3.7301,-2.0279 -5.7572,-2.8803 -0.102,-2.9756 1.171,-4.5839 1.9211,-6.7181 3.456,0.3801 6.1061,1.563 6.715,4.7985 -1.6422,0.9215 -2.1031,3.0166 -2.8789,4.7999" />
      <path
         inkscape:connector-curvature="0"
         id="path200"
         style="fill:#17a8e1;fill-opacity:1;fill-rule:nonzero;stroke:none"
         d="m 484.0163,179.1723 c -3.958,-1.2784 -10.3328,-6.4675 -15.3558,-11.52 -7.0441,-7.0801 -14.226,-15.8789 -5.762,-23.9961 6.3898,11.8734 17.7729,23.7772 21.1178,35.5161" />
      <path
         inkscape:connector-curvature="0"
         id="path202"
         style="fill:#17a8e1;fill-opacity:1;fill-rule:nonzero;stroke:none"
         d="m 460.0199,179.1723 c -16.6031,12.0912 -56.954,4.9 -49.9192,-17.2829 1.5052,12.3869 23.5451,1.1555 24.9641,-2.8785 -0.0961,-2.4616 -3.7499,-1.368 -3.846,-3.8364 3.2031,0.005 29.5761,14.6327 28.8011,23.9978" />
      <path
         inkscape:connector-curvature="0"
         id="path204"
         style="fill:#17a8e1;fill-opacity:1;fill-rule:nonzero;stroke:none"
         d="m 488.8208,174.3727 c -8.2611,-14.7838 -19.897,-26.1811 -26.8858,-42.2365 11.033,11.3777 17.4498,27.3515 27.8388,39.3567 -0.1421,1.1314 0.1672,2.7273 -0.953,2.8798" />
      <path
         inkscape:connector-curvature="0"
         id="path206"
         style="fill:#111619;fill-opacity:1;fill-rule:nonzero;stroke:none"
         d="m 472.5023,64.9395 c 0.917,-1.7884 -2.8789,-3.2114 0,-3.8404 16.5061,17.9609 34.0409,34.3446 43.194,58.5601 13.932,36.828 -6.6691,65.3422 -10.5571,97.9098 26.3639,10.438 41.046,37.6648 58.5562,53.7585 -2.4282,0.5794 -4.8152,-3.0844 -9.599,-2.8803 -7.202,2.9747 -1.5712,7.9489 1.9208,10.5599 -13.517,-7.6076 -26.161,-16.0827 -37.4468,-25.92 -11.185,0.953 -12.9952,-7.471 -20.1561,-10.5579 -11.438,6.4153 -19.233,-0.9071 -31.6689,3.8403 1.6469,-4.1606 7.7638,-4.3494 10.5559,-4.7984 0.152,-3.3619 -0.2579,-6.1456 -1.921,-7.6836 -5.148,0.6139 -10.7691,0.7599 -15.3601,1.9247 -0.1168,2.7618 0.5261,6.281 -0.9638,7.6768 -3.6482,1.4122 -0.182,-4.2928 -3.831,-2.8795 -1.2062,5.3907 5.1899,8.1993 2.8737,11.52 -5.9547,-4.9424 -10.6129,1.0971 -16.3238,0.9576 -14.074,-0.3379 -25.1779,-15.5619 -38.3899,-18.2361 -4.1961,3.1646 -6.406,8.3171 -5.7671,16.3184 5.1741,1.0747 11.2561,10.9217 7.6878,14.3981 -1.7637,-3.358 -2.3207,-7.9183 -6.7308,-8.6403 3.452,-0.6664 1.222,-4.3693 -0.957,-4.7977 -1.4451,2.2729 -1.455,3.5434 -4.7951,1.9163 -3.532,-2.0844 2.8741,-2.1328 1.9211,-4.7968 -1.3221,-2.5195 -3.5269,-4.1565 -7.6831,-3.8415 -1.3989,11.0041 2.975,16.2326 5.762,23.0397 -13.7789,-12.3664 -15.1481,-53.5947 3.8421,-60.4743 -3.9081,-7.8429 -17.322,-3.816 -26.8801,-4.8019 -37.9239,-3.9155 -58.373,-30.9634 -63.3549,-69.1138 6.2439,6.5577 25.6949,24.4579 27.017,25.1728 11.3479,6.137 22.451,12.5115 34.4169,18.0261 -0.8969,-8.2599 3.2581,-11.4597 5.7571,-16.3197 -13.5981,-30.8783 -39.4081,-49.5433 -69.112,-64.322 32.917,11.8797 55.5139,34.0778 71.0379,63.36 10.8252,-5.616 21.543,1.7997 29.7589,4.7996 -0.8319,-7.4248 4.6421,-13.03 -0.9629,-17.2775 -1.3989,-1.4884 -4.911,-0.8455 -7.6779,-0.9623 -5.245,-11.357 -27.7271,-25.7352 -13.4399,-41.273 10.5709,7.3477 16.0798,24.8726 26.875,28.796 -3.7911,-10.9278 -9.1072,-20.3323 -16.3191,-27.843 -23.612,-5.1854 -28.1832,-29.4151 -43.1991,-43.2 -3.7761,2.0676 -6.9528,-0.182 -10.5568,-0.953 -3.8761,-13.4042 -18.6401,-15.9237 -19.1971,-32.6421 1.6929,-0.8671 2.975,-2.1441 3.8421,-3.8376 10.1398,0.5585 12.2539,7.8866 17.2709,12.4782 8.1241,7.4293 18.5689,15.7918 26.8849,22.0765 7.4861,5.6656 16.8769,9.2075 23.997,15.3652 5.3011,4.5816 8.8742,10.9777 14.398,15.3564 6.4321,5.0867 13.8561,8.4841 20.1612,13.4387 15.0619,11.844 19.7339,29.4665 30.7167,44.1579 1.2212,-24.9699 0.2081,-44.6783 28.8012,-42.2402 -0.457,-13.2993 -7.8611,-19.6538 -9.599,-31.6752 m 19.1979,167.0321 c -5.2358,-2.7621 -12.346,-3.6516 -14.4039,-9.6016 -1.7079,0.7045 -0.131,1.7465 0,2.8815 -0.3339,1.3424 -1.6869,0.0782 -1.916,-0.9635 -4.3979,10.1795 9.311,9.4887 16.3199,7.6836 z m -41.2738,5.76 c 0.2588,-3.7851 -4.1103,-2.937 -3.8472,-6.7235 -1.4788,5.887 -7.541,7.1778 -13.4399,8.6414 6.427,3.8381 10.7901,-2.6348 17.2871,-1.9179 z m -121.915,-87.5194 -23.0491,-18.0771 c 5.3269,38.1974 31.4419,60.7164 73.9211,58.5549 -2.2252,-4.8086 -8.1443,-5.9351 -11.5141,-9.5986 14.8439,4.0303 23.4748,19.3955 38.395,20.1605 -21.346,-21.583 -52.3111,-33.5494 -77.7529,-51.0397 z m 38.395,11.681 c 0.7248,9.5434 40.1179,42.2197 32.6378,3.8418 0.2991,-1.3014 2.4072,-0.7994 3.8361,-0.9624 -0.1621,-13.9516 -37.847,-20.9154 -36.4739,-2.8794 z m 134.392,25.9214 c 24.544,-41.4133 4.587,-105.9579 -25.9181,-122.8751 15.5291,38.2326 10.7139,96.7978 20.1609,141.1121 6.213,-9.4627 2.103,-29.2499 7.6731,-39.3582 1.059,4.9062 -3.147,12.8245 -1.9159,21.1212 z m 39.363,65.2751 c -0.7501,2.1339 -2.022,3.7423 -1.9202,6.7178 2.0262,0.8527 2.827,2.9234 5.756,2.8806 0.7761,-1.7836 1.2371,-3.8784 2.8792,-4.7985 -0.6081,-3.2369 -3.259,-4.4207 -6.715,-4.7999" />
      <path
         inkscape:connector-curvature="0"
         id="path208"
         style="fill:#d72626;fill-opacity:1;fill-rule:nonzero;stroke:none"
         d="m 482.0958,234.851 c -0.1321,-1.1362 -1.7081,-2.177 0,-2.8806 2.058,5.9491 9.1679,6.8374 14.4029,9.6001 -7.009,1.8051 -20.7179,2.4965 -16.3188,-7.683 0.2288,1.042 1.5809,2.3071 1.9159,0.9635" />
      <path
         inkscape:connector-curvature="0"
         id="path210"
         style="fill:#111619;fill-opacity:1;fill-rule:nonzero;stroke:none"
         d="m 409.1423,48.6213 c 23.7081,14.7322 47.7399,34.6235 61.4341,55.6761 -10.7493,-5.8779 -18.5241,-17.9206 -28.8011,-26.8798 -10.552,-9.2038 -21.2349,-18.4062 -31.6749,-26.8815 -1.0392,-0.2265 -2.306,-1.5804 -0.9581,-1.9148" />
      <path
         inkscape:connector-curvature="0"
         id="path212"
         style="fill:#111619;fill-opacity:1;fill-rule:nonzero;stroke:none"
         d="m 568.1194,294.8661 c -2.109,-0.487 -10.891,-12.9631 -10.891,-12.9631 0,0 9.2642,8.7789 11.0781,10.4434 1.8201,1.6682 0.6491,0.0547 1.47,-2.0469 0.8209,-2.1036 0.4969,-3.4336 2.9339,-6.7062 2.433,-3.2726 -7.1549,-10.7793 -7.1549,-10.7793 1.2208,0.968 12.9279,9.0773 12.9279,9.0773 0,0 -8.7168,13.3541 -10.364,12.9748" />
      <path
         inkscape:connector-curvature="0"
         id="path214"
         style="fill:#ffffff;fill-opacity:1;fill-rule:nonzero;stroke:none"
         d="m 461.2,183.1314 c -0.0669,0.1557 -0.2089,0.2668 -0.3739,0.2963 l -21.5292,3.7408 c -0.153,0.0267 -0.3098,-0.019 -0.4249,-0.1244 -0.1151,-0.1057 -0.174,-0.2582 -0.161,-0.413 l 0.7671,-8.8914 c 0.017,-0.2027 0.1539,-0.3703 0.341,-0.4326 0.0368,-0.0119 0.0779,-0.0216 0.1199,-0.0241 l 9.1919,-0.7211 c 0.038,-0.003 0.0771,-0.002 0.1151,0.005 l 1,0.1508 c 0.0329,0.005 0.0681,0.007 0.1029,0.005 l 4.709,-0.2605 c 0.0462,-0.002 0.0901,-0.01 0.1321,-0.0244 l 0.2599,-0.106 c 0.0822,-0.034 0.1732,-0.0462 0.2611,-0.034 l 0.619,0.0856 c 0.0341,0.005 0.0681,0.006 0.1021,0.005 l 0.2818,-0.0181 c 0.1791,-0.0122 0.352,0.0751 0.451,0.2245 l 3.994,6.0616 c 0.0929,0.142 0.108,0.3206 0.0411,0.4753" />
      <path
         inkscape:connector-curvature="0"
         id="path216"
         style="fill:#ffffff;fill-opacity:1;fill-rule:nonzero;stroke:none"
         d="m 442.7725,214.0166 c 0.0411,0.182 -0.023,0.3722 -0.1661,0.4927 -0.1429,0.1199 -0.341,0.1508 -0.5139,0.0805 l -7.2981,-2.9878 c -0.1278,-0.053 -0.2299,-0.1564 -0.2789,-0.2865 l -0.0241,-0.0649 c -0.0119,-0.0309 -0.0199,-0.0618 -0.0258,-0.0944 -0.195,-1.1526 -0.2602,-1.5415 -0.2801,-1.6268 -10e-4,-0.005 -10e-4,-0.009 -0.002,-0.0139 -0.307,-1.1299 -0.6451,-2.2697 -0.9791,-3.3948 -0.3279,-1.1109 -0.6678,-2.2606 -0.9759,-3.3936 -0.2971,-1.0971 -0.5621,-2.2805 -0.8229,-3.4509 l -0.051,-0.2954 c -0.0732,-0.4371 -0.1361,-0.8155 -0.2291,-1.1548 -0.0771,-0.2852 -0.184,-0.5012 -0.2979,-0.7322 l -0.0482,-0.0981 c -0.233,-0.4589 -0.438,-1.0199 -0.627,-1.7136 l -0.0159,-0.0601 c -0.055,-0.2006 0.021,-0.4152 0.1899,-0.5374 l 6.406,-4.6451 c 0.0411,-0.0304 0.0871,-0.053 0.135,-0.0689 0.1091,-0.0374 0.2282,-0.036 0.3381,0.006 0.1579,0.0598 0.2759,0.1964 0.3119,0.3614 l 5.2551,23.6789 z" />
      <path
         inkscape:connector-curvature="0"
         id="path218"
         style="fill:#ffffff;fill-opacity:1;fill-rule:nonzero;stroke:none"
         d="m 474.387,187.4645 c 0.042,0.29 0.1381,1.0613 0.258,2.0378 0.2769,2.232 0.739,5.9661 0.917,6.679 0.0771,0.3024 0.155,0.5785 0.2319,0.8476 0.163,0.5805 0.305,1.0814 0.3911,1.6679 l 0.0451,0.314 c 0.0578,0.3867 0.0459,0.7521 0.0349,1.1067 -0.009,0.286 -0.0179,0.5814 0.004,0.898 0.0392,0.4774 0.0831,0.9743 0.137,1.478 0.0221,0.199 -0.0859,0.3895 -0.2679,0.4728 l -5.5899,2.5807 c -0.1242,0.0567 -0.2651,0.0584 -0.3892,0.001 -0.1239,-0.0561 -0.2169,-0.1641 -0.254,-0.2951 l -5.4938,-19.0913 c -0.0431,-0.1511 -0.008,-0.3138 0.0949,-0.4326 0.0559,-0.0646 0.127,-0.1125 0.205,-0.1383 0.066,-0.0224 0.1369,-0.0292 0.2089,-0.0196 l 1.5261,0.2013 c 2.0778,0.3444 4.258,0.8107 5.98,1.2821 0.0281,0.008 0.0559,0.0136 0.0851,0.0158 0.4059,0.0338 0.6738,0.0168 0.913,0.002 0.182,-0.0134 0.339,-0.0227 0.5428,-0.005 0.2152,0.0187 0.3881,0.1834 0.4201,0.3974" />
      <path
         inkscape:connector-curvature="0"
         id="path220"
         style="fill:#ffffff;fill-opacity:1;fill-rule:nonzero;stroke:none"
         d="m 467.8191,209.1864 -1.1111,8.7687 c -0.0219,0.1763 -0.142,0.324 -0.3079,0.3832 -0.5519,0.1945 -1.101,0.3934 -1.6599,0.597 -0.9661,0.3501 -1.965,0.7129 -2.9532,1.044 -0.9589,0.3209 -1.9879,0.61 -3.0078,0.8949 0,0 -0.9681,0.2095 -1.2663,0.3101 -0.2528,0.0845 -0.4467,0.201 -0.6358,0.3124 l -0.0861,0.0516 c -0.385,0.2381 -0.864,0.4521 -1.463,0.6514 -0.6299,0.2109 -1.3269,0.3909 -2.0809,0.5862 -0.58,0.1505 -1.1809,0.305 -1.7481,0.4782 -0.1758,0.0533 -0.3668,0 -0.4879,-0.1378 l -0.0269,-0.0283 c -0.0131,-0.0128 -0.0252,-0.0273 -0.036,-0.0397 -0.1502,-0.1871 -0.5321,-0.7869 -1.0542,-1.6149 -0.7478,-1.1858 -1.692,-2.7255 -2.3171,-3.7437 l -0.0167,-0.0264 c -0.2971,-0.485 -0.517,-0.8444 -0.6012,-0.9765 -0.0459,-0.0737 -0.1188,-0.1545 -0.3628,-0.415 l -0.1681,-0.18 c -0.108,-0.1165 -0.148,-0.2815 -0.108,-0.4354 0.0411,-0.1531 0.155,-0.2758 0.3041,-0.324 0.002,-0.002 0.004,-0.002 0.005,-0.002 l 20.581,-6.6597 c 0.1531,-0.0485 0.32,-0.017 0.443,0.0856 0.1242,0.1014 0.186,0.2608 0.1661,0.4201" />
      <path
         inkscape:connector-curvature="0"
         id="path222"
         style="fill:#ffffff;fill-opacity:1;fill-rule:nonzero;stroke:none"
         d="m 463.0042,189.2866 c 0.0491,0.178 0.0899,0.2764 0.127,0.3651 0.003,0.007 0.006,0.0125 0.009,0.0193 0.057,0.0646 0.0998,0.1437 0.1219,0.2228 l 0.0621,0.2248 c 0.0419,0.068 0.0617,0.1354 0.0688,0.195 0.0111,0.0102 0.0202,0.0195 0.0301,0.0295 0.0519,0.0581 0.089,0.1269 0.1091,0.2021 l 0.5579,2.0199 c 0.083,0.2999 0.193,0.648 0.29,0.9545 0.0541,0.1715 0.1051,0.3322 0.1451,0.4646 0.0468,0.0601 0.0828,0.1304 0.1018,0.2004 l 0.5601,2.031 c 0.2109,0.6058 0.4549,1.1645 0.572,1.4332 0.01,0.0212 0.0179,0.0448 0.0241,0.0675 l 1.673,6.0618 c 0.0298,0.108 0.021,0.2206 -0.0181,0.3204 0.017,0.1646 0.072,0.3685 0.1,0.4697 l 0.4031,1.4604 c 0.0408,0.1477 0.0108,0.3055 -0.0791,0.43 -0.091,0.1224 -0.2341,0.1995 -0.386,0.2044 -0.0621,0.003 -0.1231,0.008 -0.18,0.0167 l -19.5271,6.1291 c -0.0158,0.005 -0.032,0.008 -0.0479,0.0119 -0.3781,0.0788 -0.6341,0.159 -0.8232,0.2177 l -1.4218,0.4473 c -0.133,0.0414 -0.2789,0.0258 -0.4,-0.0445 -0.1222,-0.0701 -0.2089,-0.1868 -0.2401,-0.324 l -0.3058,-1.3422 c -0.1151,-0.5074 -0.239,-0.9502 -0.358,-1.3782 -0.097,-0.3515 -0.1903,-0.686 -0.275,-1.0392 -0.04,-0.0564 -0.07,-0.1196 -0.0862,-0.1882 l -2.107,-9.2577 c -0.117,-0.5137 -0.1998,-0.9785 -0.28,-1.4275 -0.0709,-0.3992 -0.1378,-0.7756 -0.222,-1.1455 l -0.5938,-2.611 c -0.091,-0.1865 -0.1401,-0.3733 -0.1812,-0.5275 -0.0159,-0.0652 -0.028,-0.1216 -0.0439,-0.1591 -0.019,-0.0365 -0.0329,-0.0759 -0.042,-0.117 l -0.045,-0.1987 c -0.0681,-0.2983 -0.0851,-0.5264 -0.0981,-0.6923 -0.006,-0.0791 -0.009,-0.1445 -0.0218,-0.2041 l -0.743,-3.2626 c -0.032,-0.1378 -0.004,-0.2818 0.0768,-0.3977 0.0621,-0.0907 0.1511,-0.1559 0.2531,-0.1902 0.0301,-0.0102 0.061,-0.0173 0.093,-0.0224 l 0.4289,-0.0564 c 0.3512,-0.0842 0.6729,-0.1287 0.9091,-0.1613 0.0961,-0.0134 0.1769,-0.0238 0.235,-0.0346 0.0139,-0.003 0.026,-0.005 0.0391,-0.006 0.339,-0.0377 0.519,-0.0479 0.6718,-0.0582 0.142,-0.007 0.25,-0.0138 0.455,-0.043 0.051,-0.0244 0.1051,-0.046 0.159,-0.0635 0.1451,-0.0496 0.2942,-0.0735 0.4481,-0.0735 l 2.401,-0.432 c 0.6389,-0.0739 1.171,-0.1343 1.6319,-0.1873 2.6441,-0.3047 2.9211,-0.3362 7.2862,-1.1447 l 2.9908,-0.432 c 0.0252,-0.004 0.0502,-0.005 0.0751,-0.005 l 0.163,0.001 c 0.2461,0.001 0.428,-0.0581 0.5369,-0.0941 0.0292,-0.009 0.0601,-0.0156 0.091,-0.0196 0.3722,-0.049 0.8161,-0.1023 1.2832,-0.157 0.639,-0.076 1.3198,-0.1562 1.9128,-0.239 0.2501,-0.0354 0.487,0.1208 0.5542,0.364 l 0.8759,3.1728 z" />
      <path
         inkscape:connector-curvature="0"
         id="path224"
         style="fill:#d72626;fill-opacity:1;fill-rule:nonzero;stroke:none"
         d="m 455.9839,199.0029 c -0.072,-0.5596 -0.019,-0.3478 -0.0569,-0.4995 l -0.0669,-0.271 c -0.1032,-0.5521 -0.1761,-0.9813 -0.2662,-1.3441 l -0.7501,-3.017 -0.2919,-1.1763 c -0.0828,-0.3311 -0.169,-0.4062 -0.1829,-0.4663 -0.055,-0.0828 -0.115,-0.324 -0.199,-0.5267 -0.1182,-0.0663 -0.2919,-0.631 -0.3461,-0.7143 0,0 -0.267,-0.1236 -0.4201,-0.4686 -0.3149,-0.7228 -1.4127,-1.3402 -1.5769,-1.4584 -0.718,-0.1693 -1.9029,-0.1868 -3.077,0.1142 -0.191,0.0488 -0.413,0.1052 -0.5958,0.184 -1.334,0.47 -2.7131,1.3042 -3.299,1.9355 -1.0672,1.1395 -0.5561,3.0619 -0.341,4.7395 0.0298,0.1205 0.0278,0.2494 0.0578,0.3708 0.082,0.3322 0.2211,0.6171 0.3121,0.8504 0.0661,0.4008 0.025,0.5068 0.1409,0.7012 0.023,0.091 0.0692,0.1438 0.0842,0.2041 0.0918,0.233 0.2018,0.269 0.3918,0.2206 0.1269,-0.0323 0.2792,-0.1029 0.5011,-0.1607 l 2.014,-0.4513 0.127,-0.0323 c 0.6659,-0.1713 0.9071,-0.4252 0.8688,-0.5746 l -0.0649,-0.4011 c -0.21,-0.845 -0.218,-0.8756 -0.3988,-1.4706 -0.1021,-0.6795 -0.345,-1.3873 -0.1361,-1.6336 0.154,-0.3277 0.2829,-0.4887 0.578,-0.6614 l 0.0629,-0.0158 c 0.381,-0.0978 0.9922,0.3234 1.0389,0.3758 0.7742,0.6682 0.7983,1.1756 1.0123,1.762 0.2149,0.4593 0.007,0.0307 0.2058,0.5571 l 0.104,0.4235 c 0.2781,1.6611 0.69,3.3199 1.0732,4.8583 l 0.3739,1.5086 c 0.1729,0.6942 0.9559,3.5742 0.9559,3.5742 l 0.0671,0.2718 0.0681,0.271 0.3889,1.569 c 0.0751,0.3019 0.2551,0.4802 0.4751,0.5522 0.2919,0.0856 0.648,0.0269 0.8379,-0.0224 l 0.159,-0.0397 2.221,-0.5689 c 0.2559,-0.1942 0.1,-0.9564 -0.004,-1.3782 l -0.0451,-0.1815 -0.0898,-0.3625 c -0.006,-0.1585 -0.0511,-0.339 -0.0882,-0.4898 -0.121,-0.4833 -0.3039,-0.9496 -0.4238,-1.4327 -0.0371,-0.1511 -0.0822,-0.3313 -0.0881,-0.4906 -0.2271,-0.7765 -0.3161,-1.1384 -0.442,-1.2342 l -0.3449,-1.3876 -0.4941,-1.9913 -0.0301,-0.1208 z" />
    </g>
  </g>
</svg>
