<?xml version="1.0" encoding="UTF-8" standalone="no"?>
<!-- Created with Inkscape (http://www.inkscape.org/) -->

<svg
   xmlns:dc="http://purl.org/dc/elements/1.1/"
   xmlns:cc="http://creativecommons.org/ns#"
   xmlns:rdf="http://www.w3.org/1999/02/22-rdf-syntax-ns#"
   xmlns:svg="http://www.w3.org/2000/svg"
   xmlns="http://www.w3.org/2000/svg"
   xmlns:sodipodi="http://sodipodi.sourceforge.net/DTD/sodipodi-0.dtd"
   xmlns:inkscape="http://www.inkscape.org/namespaces/inkscape"
   viewBox="0 0 342.46764 336.61566"
   id="svg8180"
   version="1.1"
   inkscape:version="0.91 r13725"
   sodipodi:docname="superbohater.svg">
  <sodipodi:namedview
     id="base"
     pagecolor="#ffffff"
     bordercolor="#666666"
     borderopacity="1.0"
     inkscape:pageopacity="0.0"
     inkscape:pageshadow="2"
     inkscape:zoom="4.9433232"
     inkscape:cx="35.347782"
     inkscape:cy="193.78927"
     inkscape:document-units="px"
     inkscape:current-layer="layer1"
     showgrid="false"
     fit-margin-top="0"
     fit-margin-left="0"
     fit-margin-right="0"
     fit-margin-bottom="0"
     inkscape:window-width="1920"
     inkscape:window-height="1029"
     inkscape:window-x="0"
     inkscape:window-y="25"
     inkscape:window-maximized="1" />
  <style
     id="style8091">
.brandcolor {
    stroke:none;
    fill-opacity:1;
    fill:currentColor;
    fill-rule:nonzero;
}</style>
  <defs
     id="defs30" />
  <metadata
     id="metadata8185">
    <rdf:RDF>
      <cc:Work
         rdf:about="">
        <dc:format>image/svg+xml</dc:format>
        <dc:type
           rdf:resource="http://purl.org/dc/dcmitype/StillImage" />
        <dc:title></dc:title>
      </cc:Work>
    </rdf:RDF>
  </metadata>
  <g
     transform="translate(-114.48047,-204.05438)"
     id="layer1"
     inkscape:groupmode="layer"
     inkscape:label="Layer 1">
    <path
       sodipodi:nodetypes="cccccccccccccccccccccccccccccccccccccccccccccccccccc"
       inkscape:connector-curvature="0"
       id="path206"
       style="fill:#111619;fill-opacity:1;fill-rule:nonzero;stroke:none"
       d="m 324.47172,491.47253 c 1.14625,2.2355 -3.59862,4.01425 0,4.8005 20.63263,-22.45112 42.55113,-42.93075 53.9925,-73.20012 17.415,-46.035 -8.33637,-81.67775 -13.19637,-122.38725 32.95487,-13.0475 51.3075,-47.081 73.19525,-67.19812 -3.03525,-0.72425 -6.019,3.8555 -11.99875,3.60037 -9.0025,-3.71837 -1.964,-9.93612 2.401,-13.19987 -16.89625,9.5095 -32.70125,20.10337 -46.80851,32.4 -13.98124,-1.19125 -16.24399,9.33875 -25.19512,13.19737 -14.2975,-8.01912 -24.04125,1.13388 -39.58612,-4.80037 2.05862,5.20075 9.70475,5.43675 13.19487,5.998 0.19,4.20237 -0.32237,7.682 -2.40125,9.6045 -6.435,-0.76738 -13.46137,-0.94988 -19.20012,-2.40588 -0.146,-3.45225 0.65762,-7.85125 -1.20475,-9.596 -4.56025,-1.76525 -0.2275,5.366 -4.78875,3.59938 -1.50775,-6.73838 6.48737,-10.24913 3.59212,-14.4 -7.44337,6.178 -13.26612,-1.37138 -20.40475,-1.197 -17.5925,0.42237 -31.47237,19.45237 -47.98737,22.79512 -5.24513,-3.95575 -8.0075,-10.39637 -7.20888,-20.398 6.46763,-1.34337 14.07012,-13.65212 9.60975,-17.99762 -2.20462,4.1975 -2.90088,9.89787 -8.4135,10.80037 4.315,0.833 1.5275,5.46163 -1.19625,5.99713 -1.80638,-2.84113 -1.81875,-4.42925 -5.99387,-2.39538 -4.415,2.6055 3.59262,2.666 2.40137,5.996 -1.65262,3.14938 -4.40862,5.19563 -9.60387,4.80188 -1.74863,-13.75513 3.71875,-20.29075 7.2025,-28.79963 -17.22363,15.458 -18.93513,66.99337 4.80262,75.59287 -4.88512,9.80363 -21.6525,4.77 -33.60012,6.00238 -47.40488,4.89437 -72.96625,38.70425 -79.19363,86.39225 7.80488,-8.19713 32.11863,-30.57238 33.77125,-31.466 14.18488,-7.67125 28.06375,-15.63938 43.02113,-22.53263 -1.12113,10.32488 4.07262,14.32463 7.19637,20.39963 -16.99762,38.59787 -49.26012,61.92912 -86.39,80.4025 41.14625,-14.84963 69.39238,-42.59725 88.79738,-79.2 13.53149,7.02 26.92875,-2.24963 37.19862,-5.9995 -1.03988,9.281 5.80263,16.2875 -1.20363,21.59687 -1.74862,1.8605 -6.13875,1.05688 -9.59737,1.20288 -6.55625,14.19625 -34.65887,32.169 -16.79987,51.59125 13.21362,-9.18463 20.09974,-31.09075 33.59374,-35.995 -4.73887,13.65975 -11.384,25.41537 -20.39887,34.80375 -29.515,6.48175 -35.229,36.76887 -53.99887,54 -4.72013,-2.5845 -8.691,0.2275 -13.196,1.19125 -4.84513,16.75525 -23.30013,19.90462 -23.99638,40.80262 2.11613,1.08388 3.71875,2.68013 4.80263,4.797 12.67475,-0.69812 15.31737,-9.85825 21.58862,-15.59775 10.15513,-9.28662 23.21113,-19.73975 33.60613,-27.59562 9.35762,-7.082 21.09612,-11.50938 29.99625,-19.2065 6.62637,-5.727 11.09274,-13.72213 17.9975,-19.1955 8.04012,-6.35838 17.32012,-10.60513 25.2015,-16.79838 18.82737,-14.805 24.66737,-36.83312 38.39587,-55.19737 1.5265,31.21237 0.26013,55.84787 36.0015,52.80025 -0.57125,16.62412 -9.82638,24.56725 -11.99875,39.594" />
    <path
       inkscape:connector-curvature="0"
       id="path178"
       style="fill:#111619;fill-opacity:1;fill-rule:nonzero;stroke:none"
       d="m 319.66947,246.68741 c -0.58887,-8.99387 3.02838,-13.76387 8.39975,-16.7995 5.95525,1.85525 17.66263,10.05238 20.39875,7.2 -7.92487,-17.79937 -36.305,-12.54687 -38.39625,7.1975 3.63013,0.36825 4.28275,3.71313 9.59775,2.402" />
    <path
       inkscape:connector-curvature="0"
       id="path180"
       style="fill:#111619;fill-opacity:1;fill-rule:nonzero;stroke:none"
       d="m 308.86872,437.47291 c -0.14025,-1.45738 -0.36137,-2.8375 -2.40125,-2.39425 -9.87025,14.53262 -28.00637,27.18887 -34.80387,40.79775 11.73262,-13.482 26.58125,-23.821 37.20512,-38.4035" />
    <path
       inkscape:connector-curvature="0"
       id="path210"
       style="fill:#111619;fill-opacity:1;fill-rule:nonzero;stroke:none"
       d="m 245.27172,511.87028 c 29.63513,-18.41525 59.67488,-43.27937 76.79263,-69.59512 -13.43663,7.34737 -23.15513,22.40075 -36.00138,33.59975 -13.19,11.50475 -26.54362,23.00775 -39.59362,33.60187 -1.299,0.28313 -2.8825,1.9755 -1.19763,2.3935" />
    <path
       inkscape:connector-curvature="0"
       id="path212"
       style="fill:#111619;fill-opacity:1;fill-rule:nonzero;stroke:none"
       d="m 443.9931,204.06429 c -2.63625,0.60875 -13.61375,16.20387 -13.61375,16.20387 0,0 11.58025,-10.97362 13.84762,-13.05425 2.27513,-2.08525 0.81138,-0.0684 1.8375,2.55863 1.02613,2.6295 0.62113,4.292 3.66738,8.38275 3.04125,4.09075 -8.94363,13.47412 -8.94363,13.47412 1.526,-1.21 16.15988,-11.34662 16.15988,-11.34662 0,0 -10.896,-16.69263 -12.955,-16.2185" />
    <path
       inkscape:connector-curvature="0"
       id="path214"
       style="fill:#ffffff;fill-opacity:1;fill-rule:nonzero;stroke:none"
       d="m 310.34385,343.73266 c -0.0836,-0.19463 -0.26113,-0.3335 -0.46738,-0.37038 l -26.9115,-4.676 c -0.19125,-0.0334 -0.38725,0.0238 -0.53112,0.1555 -0.14388,0.13213 -0.2175,0.32275 -0.20125,0.51625 l 0.95887,11.11425 c 0.0212,0.25338 0.19238,0.46288 0.42625,0.54075 0.046,0.0149 0.0974,0.027 0.14988,0.0301 l 11.48987,0.90137 c 0.0475,0.004 0.0964,0.002 0.14388,-0.006 l 1.25,-0.1885 c 0.0411,-0.006 0.0851,-0.009 0.12862,-0.006 l 5.88625,0.32563 c 0.0577,0.002 0.11263,0.0125 0.16513,0.0305 l 0.32487,0.1325 c 0.10275,0.0425 0.2165,0.0577 0.32638,0.0425 l 0.77375,-0.107 c 0.0426,-0.006 0.0851,-0.007 0.12762,-0.006 l 0.35225,0.0226 c 0.22388,0.0153 0.44,-0.0939 0.56375,-0.28062 l 4.9925,-7.577 c 0.11613,-0.1775 0.135,-0.40075 0.0514,-0.59413" />
    <path
       inkscape:connector-curvature="0"
       id="path216"
       style="fill:#ffffff;fill-opacity:1;fill-rule:nonzero;stroke:none"
       d="m 287.30947,305.12616 c 0.0514,-0.2275 -0.0288,-0.46525 -0.20762,-0.61588 -0.17863,-0.14987 -0.42625,-0.1885 -0.64238,-0.10062 l -9.12262,3.73475 c -0.15975,0.0662 -0.28738,0.1955 -0.34863,0.35812 l -0.0301,0.0811 c -0.0149,0.0386 -0.0249,0.0772 -0.0323,0.118 -0.24375,1.44075 -0.32525,1.92687 -0.35013,2.0335 -0.001,0.006 -0.001,0.0113 -0.002,0.0174 -0.38375,1.41238 -0.80637,2.83713 -1.22387,4.2435 -0.40988,1.38863 -0.83475,2.82575 -1.21988,4.242 -0.37137,1.37138 -0.70262,2.85063 -1.02862,4.31363 l -0.0637,0.36925 c -0.0915,0.54637 -0.17013,1.01937 -0.28638,1.4435 -0.0964,0.3565 -0.23,0.6265 -0.37237,0.91525 l -0.0602,0.12262 c -0.29125,0.57363 -0.5475,1.27488 -0.78375,2.142 l -0.0199,0.0751 c -0.0687,0.25075 0.0263,0.519 0.23738,0.67175 l 8.0075,5.80637 c 0.0514,0.038 0.10887,0.0662 0.16875,0.0861 0.13637,0.0468 0.28525,0.045 0.42262,-0.007 0.19738,-0.0747 0.34488,-0.2455 0.38988,-0.45175 l 6.56887,-29.59863 z" />
    <path
       inkscape:connector-curvature="0"
       id="path218"
       style="fill:#ffffff;fill-opacity:1;fill-rule:nonzero;stroke:none"
       d="m 326.8276,338.31628 c 0.0525,-0.3625 0.17262,-1.32662 0.3225,-2.54725 0.34612,-2.79 0.92375,-7.45762 1.14625,-8.34875 0.0964,-0.378 0.19375,-0.72312 0.28987,-1.0595 0.20375,-0.72562 0.38125,-1.35175 0.48888,-2.08487 l 0.0564,-0.3925 c 0.0722,-0.48338 0.0574,-0.94013 0.0436,-1.38338 -0.0112,-0.3575 -0.0224,-0.72675 0.005,-1.1225 0.049,-0.59675 0.10387,-1.21787 0.17125,-1.8475 0.0276,-0.24875 -0.10738,-0.48687 -0.33488,-0.591 l -6.98737,-3.22587 c -0.15525,-0.0709 -0.33138,-0.073 -0.4865,-0.001 -0.15488,0.0701 -0.27113,0.20512 -0.3175,0.36887 l -6.86725,23.86413 c -0.0539,0.18887 -0.01,0.39225 0.11862,0.54075 0.0699,0.0808 0.15875,0.14062 0.25625,0.17287 0.0825,0.028 0.17113,0.0365 0.26113,0.0245 l 1.90762,-0.25162 c 2.59725,-0.4305 5.3225,-1.01338 7.475,-1.60263 0.0351,-0.01 0.0699,-0.017 0.10638,-0.0197 0.50737,-0.0422 0.84225,-0.021 1.14125,-0.002 0.2275,0.0168 0.42375,0.0284 0.6785,0.006 0.269,-0.0234 0.48512,-0.22925 0.52512,-0.49675" />
    <path
       inkscape:connector-curvature="0"
       id="path220"
       style="fill:#ffffff;fill-opacity:1;fill-rule:nonzero;stroke:none"
       d="m 318.61772,311.16391 -1.38887,-10.96087 c -0.0274,-0.22038 -0.1775,-0.405 -0.38488,-0.479 -0.68987,-0.24313 -1.37625,-0.49175 -2.07487,-0.74625 -1.20763,-0.43763 -2.45625,-0.89113 -3.6915,-1.305 -1.19863,-0.40113 -2.48488,-0.7625 -3.75975,-1.11863 0,0 -1.21013,-0.26187 -1.58288,-0.38762 -0.316,-0.10563 -0.55837,-0.25125 -0.79475,-0.3905 l -0.10762,-0.0645 c -0.48125,-0.29763 -1.08,-0.56513 -1.82875,-0.81425 -0.78738,-0.26363 -1.65863,-0.48863 -2.60113,-0.73275 -0.725,-0.18813 -1.47612,-0.38125 -2.18512,-0.59775 -0.21975,-0.0666 -0.4585,0 -0.60988,0.17225 l -0.0336,0.0354 c -0.0164,0.016 -0.0315,0.0341 -0.045,0.0496 -0.18775,0.23387 -0.66513,0.98362 -1.31775,2.01862 -0.93475,1.48225 -2.115,3.40688 -2.89638,4.67963 l -0.0209,0.033 c -0.37138,0.60625 -0.64625,1.0555 -0.7515,1.22062 -0.0574,0.0921 -0.1485,0.19313 -0.4535,0.51875 l -0.21013,0.225 c -0.135,0.14563 -0.185,0.35188 -0.135,0.54425 0.0514,0.19138 0.19375,0.34475 0.38013,0.405 0.002,0.002 0.005,0.002 0.006,0.002 l 25.72625,8.32462 c 0.19137,0.0606 0.4,0.0213 0.55375,-0.107 0.15525,-0.12675 0.2325,-0.326 0.20762,-0.52512" />
    <path
       inkscape:connector-curvature="0"
       id="path222"
       style="fill:#ffffff;fill-opacity:1;fill-rule:nonzero;stroke:none"
       d="m 312.5991,336.03866 c 0.0614,-0.2225 0.11237,-0.3455 0.15875,-0.45638 0.004,-0.009 0.007,-0.0156 0.0113,-0.0241 0.0712,-0.0808 0.12475,-0.17963 0.15237,-0.2785 l 0.0776,-0.281 c 0.0524,-0.085 0.0771,-0.16925 0.086,-0.24375 0.0139,-0.0127 0.0253,-0.0244 0.0376,-0.0369 0.0649,-0.0726 0.11125,-0.15862 0.13638,-0.25262 l 0.69737,-2.52488 c 0.10375,-0.37487 0.24125,-0.81 0.3625,-1.19312 0.0676,-0.21438 0.13138,-0.41525 0.18138,-0.58075 0.0585,-0.0751 0.1035,-0.163 0.12725,-0.2505 l 0.70012,-2.53875 c 0.26363,-0.75725 0.56863,-1.45563 0.715,-1.7915 0.0125,-0.0265 0.0224,-0.056 0.0301,-0.0844 l 2.09125,-7.57725 c 0.0373,-0.135 0.0263,-0.27575 -0.0226,-0.4005 0.0213,-0.20575 0.09,-0.46062 0.125,-0.58712 l 0.50388,-1.8255 c 0.051,-0.18463 0.0135,-0.38188 -0.0989,-0.5375 -0.11375,-0.153 -0.29262,-0.24938 -0.4825,-0.2555 -0.0776,-0.004 -0.15387,-0.01 -0.225,-0.0209 l -24.40887,-7.66137 c -0.0198,-0.006 -0.04,-0.01 -0.0599,-0.0149 -0.47262,-0.0985 -0.79262,-0.19875 -1.029,-0.27212 l -1.77725,-0.55913 c -0.16625,-0.0517 -0.34862,-0.0323 -0.5,0.0556 -0.15275,0.0876 -0.26112,0.2335 -0.30012,0.405 l -0.38225,1.67775 c -0.14388,0.63425 -0.29875,1.18775 -0.4475,1.72275 -0.12125,0.43937 -0.23788,0.8575 -0.34375,1.299 -0.05,0.0705 -0.0875,0.1495 -0.10775,0.23525 l -2.63375,11.57212 c -0.14625,0.64213 -0.24975,1.22313 -0.35,1.78438 -0.0886,0.499 -0.17225,0.9695 -0.2775,1.43187 l -0.74225,3.26375 c -0.11375,0.23313 -0.17513,0.46663 -0.2265,0.65938 -0.0199,0.0815 -0.035,0.152 -0.0549,0.19887 -0.0238,0.0456 -0.0411,0.0949 -0.0525,0.14625 l -0.0563,0.24838 c -0.0851,0.37287 -0.10637,0.658 -0.12262,0.86537 -0.008,0.0989 -0.0113,0.18063 -0.0273,0.25513 l -0.92875,4.07825 c -0.04,0.17225 -0.005,0.35225 0.096,0.49712 0.0776,0.11338 0.18887,0.19488 0.31637,0.23775 0.0376,0.0128 0.0762,0.0216 0.11625,0.028 l 0.53613,0.0705 c 0.439,0.10525 0.84112,0.16088 1.13637,0.20163 0.12013,0.0168 0.22113,0.0297 0.29375,0.0433 0.0174,0.004 0.0325,0.006 0.0489,0.007 0.42375,0.0471 0.64875,0.0599 0.83975,0.0727 0.1775,0.009 0.3125,0.0173 0.56875,0.0538 0.0637,0.0305 0.13137,0.0575 0.19875,0.0794 0.18137,0.062 0.36775,0.0919 0.56012,0.0919 l 3.00125,0.54 c 0.79863,0.0924 1.46375,0.16787 2.03988,0.23412 3.30512,0.38088 3.65137,0.42025 9.10775,1.43088 l 3.7385,0.54 c 0.0315,0.005 0.0627,0.006 0.0939,0.006 l 0.20375,-0.001 c 0.30763,-10e-4 0.535,0.0726 0.67113,0.11762 0.0365,0.0112 0.0751,0.0195 0.11375,0.0245 0.46525,0.0613 1.02012,0.12788 1.604,0.19625 0.79875,0.095 1.64975,0.19525 2.391,0.29875 0.31262,0.0443 0.60875,-0.151 0.69275,-0.455 l 1.09487,-3.966 z" />
    <path
       class="brandcolor"
       inkscape:connector-curvature="0"
       id="path224"
       style="fill:#D72626;"
       d="m 303.82372,323.89328 c -0.09,0.6995 -0.0238,0.43475 -0.0711,0.62438 l -0.0836,0.33875 c -0.129,0.69012 -0.22012,1.22662 -0.33275,1.68012 l -0.93762,3.77125 -0.36488,1.47038 c -0.1035,0.41387 -0.21125,0.50775 -0.22862,0.58287 -0.0688,0.1035 -0.14375,0.405 -0.24875,0.65838 -0.14775,0.0829 -0.36488,0.78875 -0.43263,0.89287 0,0 -0.33375,0.1545 -0.52512,0.58575 -0.39363,0.9035 -1.76588,1.67525 -1.97113,1.823 -0.8975,0.21163 -2.37862,0.2335 -3.84625,-0.14275 -0.23875,-0.061 -0.51625,-0.1315 -0.74475,-0.23 -1.6675,-0.5875 -3.39137,-1.63025 -4.12375,-2.41937 -1.334,-1.42438 -0.69512,-3.82738 -0.42625,-5.92438 0.0373,-0.15062 0.0348,-0.31175 0.0722,-0.4635 0.1025,-0.41525 0.27638,-0.77137 0.39013,-1.063 0.0826,-0.501 0.0312,-0.6335 0.17612,-0.8765 0.0288,-0.11375 0.0865,-0.17975 0.10525,-0.25512 0.11475,-0.29125 0.25225,-0.33625 0.48975,-0.27575 0.15863,0.0404 0.349,0.12862 0.62638,0.20087 l 2.5175,0.56413 0.15875,0.0404 c 0.83237,0.21413 1.13387,0.5315 1.086,0.71825 l -0.0811,0.50138 c -0.2625,1.05625 -0.2725,1.0945 -0.4985,1.83825 -0.12762,0.84937 -0.43125,1.73412 -0.17012,2.042 0.1925,0.40962 0.35362,0.61087 0.7225,0.82675 l 0.0786,0.0197 c 0.47625,0.12225 1.24025,-0.40425 1.29863,-0.46975 0.96775,-0.83525 0.99787,-1.4695 1.26537,-2.2025 0.26863,-0.57413 0.009,-0.0384 0.25725,-0.69638 l 0.13,-0.52937 c 0.34763,-2.07638 0.8625,-4.14988 1.3415,-6.07288 l 0.46738,-1.88575 c 0.21612,-0.86775 1.19487,-4.46775 1.19487,-4.46775 l 0.0839,-0.33975 0.0851,-0.33875 0.48613,-1.96125 c 0.0939,-0.37737 0.31887,-0.60025 0.59387,-0.69025 0.36488,-0.107 0.81,-0.0336 1.04738,0.028 l 0.19875,0.0496 2.77625,0.71112 c 0.31987,0.24275 0.125,1.1955 -0.005,1.72275 l -0.0564,0.22688 -0.11225,0.45312 c -0.007,0.19813 -0.0639,0.42375 -0.11025,0.61225 -0.15125,0.60413 -0.37987,1.187 -0.52975,1.79088 -0.0464,0.18887 -0.10275,0.41412 -0.11012,0.61325 -0.28388,0.97062 -0.39513,1.423 -0.5525,1.54275 l -0.43113,1.7345 -0.61762,2.48912 -0.0376,0.151 z" />
    <path
       class="brandcolor"
       inkscape:connector-curvature="0"
       id="path182"
       style="fill:#d72626;fill-opacity:1;fill-rule:nonzero;stroke:none"
       d="m 199.6796,334.28328 c 4.21262,-4.57962 11.611,-5.9875 14.3925,-11.99825 -53.09888,-2.70187 -85.74263,25.4465 -92.40125,73.19363 l 27.2379,-23.6692 c 31.80113,-21.86325 72.08097,-35.74918 98.76322,-62.72793 -18.6485,0.95713 -29.4375,20.16388 -47.99237,25.20175"
       sodipodi:nodetypes="cccccc" />
    <path
       class="brandcolor"
       inkscape:connector-curvature="0"
       id="path184"
       style="fill:#D72626;"
       d="m 239.27285,353.47878 c 9.35012,-47.9735 -39.89125,-7.127 -40.79725,4.80225 -1.71638,22.545 45.38975,13.84025 45.5935,-3.59925 -1.78725,-0.20375 -4.42238,0.42375 -4.79625,-1.203" />
    <path
       class="brandcolor"
       inkscape:connector-curvature="0"
       id="path188"
       style="fill:#D72626;"
       d="m 298.06735,271.88741 c -0.32988,-4.7335 5.13137,-3.67225 4.80862,-8.40437 -8.12237,0.89612 -13.57625,-7.19538 -21.6085,-2.39775 7.37363,1.82875 14.94988,3.44337 16.79988,10.80212" />
    <path
       class="brandcolor"
       inkscape:connector-curvature="0"
       id="path196"
       style="fill:#d72626;fill-opacity:1;fill-rule:nonzero;stroke:none"
       d="m 359.26947,303.08341 c -11.80887,55.3925 0.0764,127.78983 -25.2015,176.389 38.13138,-21.145 63.07763,-101.8265 32.39763,-153.59275 -1.53888,10.3705 3.71862,20.26875 2.39487,26.40087 -6.96225,-12.63587 -1.82487,-37.36887 -9.591,-49.19712"
       sodipodi:nodetypes="ccccc" />
    <path
       class="brandcolor"
       inkscape:connector-curvature="0"
       id="path198"
       style="fill:#D72626;"
       d="m 420.46485,232.28741 c -3.66138,-0.0538 -4.66263,2.53488 -7.1965,3.60038 -0.1275,3.7195 1.46375,5.72987 2.40137,8.39762 4.32,-0.47512 7.63263,-1.95375 8.39375,-5.99812 -2.05275,-1.15188 -2.62887,-3.77075 -3.59862,-5.99988" />
    <path
       class="brandcolor"
       inkscape:connector-curvature="0"
       id="path208"
       style="fill:#D72626;"
       d="m 336.4636,279.08316 c -0.16513,1.42025 -2.13513,2.72125 0,3.60075 2.5725,-7.43637 11.45987,-8.54675 18.00362,-12.00012 -8.76125,-2.25638 -25.89737,-3.12063 -20.3985,9.60375 0.286,-1.3025 1.97613,-2.88388 2.39488,-1.20438" />
  </g>
</svg>
