<?xml version="1.0" encoding="iso-8859-1"?>
<!-- Generator: Adobe Illustrator 18.1.1, SVG Export Plug-In . SVG Version: 6.00 Build 0)  -->
<svg version="1.1" id="Capa_1" xmlns="http://www.w3.org/2000/svg" xmlns:xlink="http://www.w3.org/1999/xlink" x="0px" y="0px"
	 viewBox="0 0 486.475 486.475" style="enable-background:new 0 0 486.475 486.475;" xml:space="preserve">
<g>
	<g>
		<g>
			<path style="fill:#010002;" d="M243.155,153.048c20.469,0,37.063-16.593,37.063-37.061c0-20.473-16.594-37.065-37.063-37.065
				c-20.469,0-37.062,16.592-37.062,37.065C206.093,136.455,222.686,153.048,243.155,153.048z"/>
			<path style="fill:#010002;" d="M314.813,265.096c2.517-21.161,5.787-87.428-49.273-105.667
				c-1.104-0.369-9.793-3.519-13.153-4.337l-9.131,9.398l-9.047-9.394c-0.042,0.008-0.064,0.008-0.096,0.015
				c-3.442,0.829-12.088,3.979-13.086,4.325c-55.366,19.356-51.908,84.696-49.3,105.668h-33.723v24.761h11.826v116.786h22.99
				V289.857h23.787c-1.767,3.093-2.616,6.724-2.198,10.483l10.951,90.897c0.976,8.811,8.441,15.342,17.127,15.342
				c0.629,0,1.266-0.038,1.901-0.099c9.467-1.062,16.297-9.578,15.246-19.042l-9.533-77.996l13.103-5.356l12.676,5.28l-9.459,78.151
				c-1.032,9.472,5.813,17.979,15.274,19.003c0.64,0.074,1.261,0.113,1.881,0.113c8.688,0,16.164-6.539,17.132-15.363l10.866-90.962
				c0.413-3.736-0.431-7.366-2.194-10.453h24.113v116.781h22.984V289.857h11.995v-24.761H314.813z M205.222,265.099h-4.408
				c-0.93-6.2-4.443-34.468,4.408-55.583V265.099z M243.291,237.839h-0.165l-8.988-12.238l8.988-59.744h0.165l8.893,59.744
				L243.291,237.839z M285.749,265.099h-4.658v-55.773C290.269,230.529,286.678,258.906,285.749,265.099z"/>
		</g>
		<g>
			<circle style="fill:#010002;" cx="72.203" cy="135.089" r="35.507"/>
			<path style="fill:#010002;" d="M153.926,232.614c-42.317,3.135-47.829-11.66-58.142-39.287
				c-3.601-10.104-13.588-16.935-23.111-19.287c0,0-3.733-1.121-7.701-1.044c-3.826,0.088-8.068,0.975-8.068,0.975l-0.104,0.007
				c-11.953,2.909-24.667,12.628-24.701,27.23l-0.076,78.357c-0.021,17.021,11.632,26.101,27.304,26.123
				c0.228,0,21.896-0.026,21.896-0.026s23.25-0.75,21.125,24.125c-1.521,17.807-3.854,37.696-5.71,59.028
				c-0.824,9.479,6.188,17.846,15.682,18.675c0.511,0.046,1.014,0.063,1.517,0.063c8.841,0,16.37-6.755,17.156-15.732
				c8.143-93.188,4.502-98.888,1.995-104.761c-2.715-5.115-8.068-12.206-35.808-14.141l0.029-22.993
				c9.62,7.367,22.558,10.845,42.242,10.845c5.047,0,10.521-0.224,16.513-0.657c7.582-0.563,13.28-7.188,12.726-14.774
				C168.127,237.748,161.511,232.066,153.926,232.614z"/>
			<path style="fill:#010002;" d="M82.752,312.683c-2.861,0-9.471,0-23.53,0c-36.375,0-32.687-32.896-32.687-32.896v-69.245
				c0-7.325-5.935-13.258-13.268-13.258C5.938,197.284,0,203.217,0,210.542v115.402c0,4.319,2.104,8.127,5.308,10.552v69.79h15.914
				v-67.064h47.762v67.064h15.912v-67.288c6.295-1.035,11.113-6.461,11.113-13.046C96.01,318.607,90.085,312.683,82.752,312.683z"/>
			<circle style="fill:#010002;" cx="414.274" cy="135.089" r="35.507"/>
			<path style="fill:#010002;" d="M384.13,329.787c-2.125-24.875,21.125-24.125,21.125-24.125s21.669,0.026,21.896,0.026
				c15.672-0.022,27.326-9.102,27.304-26.123l-0.076-78.357c-0.034-14.602-12.748-24.321-24.701-27.23l-0.104-0.007
				c0,0-4.242-0.887-8.068-0.975c-3.968-0.077-7.701,1.044-7.701,1.044c-9.523,2.352-19.511,9.183-23.111,19.287
				c-10.313,27.627-15.824,42.422-58.142,39.287c-7.586-0.548-14.2,5.134-14.763,12.725c-0.555,7.587,5.144,14.212,12.726,14.774
				c5.992,0.434,11.466,0.657,16.513,0.657c19.685,0,32.623-3.478,42.242-10.845l0.029,22.993
				c-27.738,1.935-33.093,9.025-35.807,14.141c-2.508,5.873-6.148,11.572,1.994,104.761c0.787,8.978,8.315,15.732,17.156,15.732
				c0.504,0,1.006-0.017,1.518-0.063c9.492-0.829,16.505-9.196,15.681-18.675C387.985,367.483,385.651,347.593,384.13,329.787z"/>
			<path style="fill:#010002;" d="M473.209,197.285c-7.333,0-13.267,5.933-13.267,13.258v69.245c0,0,3.688,32.896-32.688,32.896
				c-14.06,0-20.669,0-23.529,0c-7.334,0-13.26,5.924-13.259,13.27c0,6.585,4.819,12.011,11.113,13.046v67.288h15.913v-67.064
				h47.761v67.064h15.914v-69.79c3.203-2.425,5.308-6.232,5.308-10.552V210.543C486.475,203.218,480.538,197.285,473.209,197.285z"
				/>
		</g>
	</g>
</g>
<g>
</g>
<g>
</g>
<g>
</g>
<g>
</g>
<g>
</g>
<g>
</g>
<g>
</g>
<g>
</g>
<g>
</g>
<g>
</g>
<g>
</g>
<g>
</g>
<g>
</g>
<g>
</g>
<g>
</g>
</svg>
