<?xml version="1.0" encoding="iso-8859-1"?>
<!-- Generator: Adobe Illustrator 16.0.0, SVG Export Plug-In . SVG Version: 6.00 Build 0)  -->
<!DOCTYPE svg PUBLIC "-//W3C//DTD SVG 1.1//EN" "http://www.w3.org/Graphics/SVG/1.1/DTD/svg11.dtd">
<svg version="1.1" id="Capa_1" xmlns="http://www.w3.org/2000/svg" xmlns:xlink="http://www.w3.org/1999/xlink" x="0px" y="0px"
	 width="45.652px" height="45.653px" viewBox="0 0 45.652 45.653" style="enable-background:new 0 0 45.652 45.653;"
	 xml:space="preserve">
<g>
	<g>
		<path d="M42.16,16.093h-9.493V5.018c0-1.908-1.562-3.445-3.47-3.445H16.406c-1.909,0-3.419,1.537-3.419,3.445v11.074h-2.339
			v-1.703c0-0.783-0.602-1.443-1.386-1.443h-4.42c-0.784,0-1.454,0.66-1.454,1.443v1.692C1.533,16.092,0,17.635,0,19.536v21.088
			c0,1.909,1.534,3.456,3.443,3.456H42.16c1.908,0,3.492-1.547,3.492-3.456V19.537C45.652,17.627,44.068,16.093,42.16,16.093z
			 M16.051,5.816c0-0.784,0.636-1.421,1.42-1.421h10.63c0.785,0,1.421,0.637,1.421,1.421V7.09c0,0.783-0.636,1.42-1.421,1.42h-10.63
			c-0.784,0-1.42-0.637-1.42-1.42V5.816z M22.802,41.909c-6.523,0-11.829-5.307-11.829-11.827c0-6.522,5.306-11.829,11.829-11.829
			c6.522,0,11.828,5.307,11.828,11.829C34.63,36.602,29.324,41.909,22.802,41.909z"/>
		<path d="M22.802,22.401c-4.235,0-7.681,3.445-7.681,7.681c0,4.236,3.446,7.679,7.681,7.679c4.235,0,7.681-3.442,7.681-7.679
			C30.482,25.846,27.037,22.401,22.802,22.401z"/>
	</g>
</g>
<g>
</g>
<g>
</g>
<g>
</g>
<g>
</g>
<g>
</g>
<g>
</g>
<g>
</g>
<g>
</g>
<g>
</g>
<g>
</g>
<g>
</g>
<g>
</g>
<g>
</g>
<g>
</g>
<g>
</g>
</svg>
