<?xml version="1.0" encoding="iso-8859-1"?>
<!-- Generator: Adobe Illustrator 18.1.1, SVG Export Plug-In . SVG Version: 6.00 Build 0)  -->
<svg version="1.1" id="Capa_1" xmlns="http://www.w3.org/2000/svg" xmlns:xlink="http://www.w3.org/1999/xlink" x="0px" y="0px"
	 viewBox="0 0 611.996 611.996" style="enable-background:new 0 0 611.996 611.996;" xml:space="preserve">
<g>
	<g>
		<path d="M289.273,253.608l72.519,72.519c-2.756-17.548,4.235-38.211,20.085-54.059c15.851-15.854,36.517-22.846,54.065-20.092
			l-72.519-72.52L289.273,253.608z"/>
		<path d="M395.683,360.017l72.519,72.519l74.15-74.15l-72.519-72.519c2.755,17.549-4.235,38.212-20.086,54.062
			C433.897,355.783,413.233,362.774,395.683,360.017z"/>
		<path d="M609.617,352.821L368.988,112.197c-3.176-3.179-8.327-3.179-11.503,0L308.33,161.35l-49.155-49.153
			c-3.176-3.179-8.327-3.179-11.503,0l-49.156,49.153l-49.155-49.153c-3.176-3.179-8.327-3.179-11.503,0L2.383,247.664
			C0.858,249.192,0,251.262,0,253.42c0,2.161,0.858,4.231,2.383,5.756l240.628,240.624c1.588,1.591,3.672,2.384,5.753,2.384
			c2.082,0,4.165-0.793,5.753-2.384l49.155-49.152l49.152,49.152c1.588,1.591,3.672,2.384,5.751,2.384
			c2.082,0,4.165-0.793,5.753-2.384l49.153-49.152l49.153,49.152c1.588,1.591,3.672,2.384,5.751,2.384
			c2.082,0,4.165-0.793,5.753-2.384l135.476-135.467c1.525-1.525,2.382-3.595,2.382-5.756
			C612,356.414,611.143,354.346,609.617,352.821z M248.577,469.555L32.628,253.608l111.17-111.17l36.815,36.815l-18.51,18.509
			l-18.304-18.306l-74.149,74.151l72.519,72.519c-1.596-10.17,0.099-21.38,4.881-32.098l61.112,61.111
			c-10.718,4.786-21.931,6.478-32.101,4.88l72.517,72.519l18.491-18.492l18.51,18.51L248.577,469.555z M358.389,469.555
			L142.44,253.608l111.17-111.17l36.815,36.815l-18.51,18.509l-18.304-18.306l-74.15,74.151l72.519,72.519
			c-1.598-10.171,0.095-21.385,4.878-32.102l61.111,61.109c-10.716,4.784-21.927,6.482-32.097,4.885l72.517,72.519l18.491-18.492
			l18.509,18.509L358.389,469.555z M468.202,469.555L252.253,253.608l111.17-111.17l215.949,215.95L468.202,469.555z"/>
	</g>
</g>
<g>
</g>
<g>
</g>
<g>
</g>
<g>
</g>
<g>
</g>
<g>
</g>
<g>
</g>
<g>
</g>
<g>
</g>
<g>
</g>
<g>
</g>
<g>
</g>
<g>
</g>
<g>
</g>
<g>
</g>
</svg>
